<svg width="100%" height="auto" version="1.1" xmlns="http://www.w3.org/2000/svg" xmlns:xlink="http://www.w3.org/1999/xlink">
 <defs>
  <filter id="filter9198" x="-.024" y="-.024" width="1.048" height="1.048" color-interpolation-filters="sRGB">
   <feGaussianBlur stdDeviation="0.2967033"/>
  </filter>
 </defs>
 <g>
  <g transform="matrix(.51613 0 0 .51613 249.72 -13.987)">
   <circle transform="matrix(1.3577 0 0 1.3577 -1186.7 -516.99)" cx="589" cy="472.09" r="63.717" d="m 652.71396,472.08893 c 0,35.1901 -28.52722,63.71731 -63.71732,63.71731 -35.1901,0 -63.71731,-28.52721 -63.71731,-63.71731 0,-35.1901 28.52721,-63.71732 63.71731,-63.71732 35.1901,0 63.71732,28.52722 63.71732,63.71732 z" style="fill:#c0392b"/>
   <path transform="matrix(1.1138 0 0 1.1138 -1043 -401.85)" d="m637.83 456.28c0 8.7975 13.1 32.992 9.8757 40.615-3.2243 7.623-19.052 4.256-24.817 10.021-5.7653 5.7653-1.4681 20.663-9.0911 23.887-7.623 3.2243-13.214 12.449-31.313 8.7279-34.469-7.0859 13.488-36.899-26.51-46.974-49.774 19.663-45.107-35.088-30.34-48.056s30.214-7.9768 25.747-28.625c-1.7239-7.969 36.33 36.045 43.508 31.924 23.436-13.456-14.692-39.424-5.8943-39.424 35.19 0 48.834 12.714 48.834 47.904z" style="fill:#ecf0f1"/>
   <path d="m-399.71 163.7c5.9353-0.27283 22.664 7.8148 27.707 5.4031 5.0429-2.4117 2.2805-12.986 5.9913-17.054 3.7108-4.0684 13.895-1.6313 15.834-6.8742 1.9389-5.2429 7.9888-9.3007 4.9173-21.396-5.8496-23.035-24.476 10.244-32.514-16.428 11.722-34.19-25.071-29.344-33.362-18.978-8.2913 10.365-4.4446 20.632-18.514 18.258-5.4298-0.91591 25.445 23.392 22.887 28.363-8.3516 16.229-27.053-8.6893-26.78-2.754 1.0913 23.741 10.092 32.552 33.833 31.461z" style="fill:#c0392b"/>
   <g transform="translate(283.52 35.897)">
    <ellipse transform="matrix(.67302 .097186 -.052288 .3621 -228.2 128.14)" cx="-687.42" cy="92.893" rx="38.852" ry="21.239" d="m -648.56973,92.893219 c 0,11.730031 -17.39464,21.239101 -38.85202,21.239101 -21.45738,0 -38.85202,-9.50907 -38.85202,-21.239101 0,-11.730034 17.39464,-21.239105 38.85202,-21.239105 21.45738,0 38.85202,9.509071 38.85202,21.239105 z" style="fill:#27ae60"/>
    <ellipse transform="matrix(.59074 -.33679 .1812 .31783 -258.42 -175.22)" cx="-687.42" cy="92.893" rx="38.852" ry="21.239" d="m -648.56973,92.893219 c 0,11.730031 -17.39464,21.239101 -38.85202,21.239101 -21.45738,0 -38.85202,-9.50907 -38.85202,-21.239101 0,-11.730034 17.39464,-21.239105 38.85202,-21.239105 21.45738,0 38.85202,9.509071 38.85202,21.239105 z" style="fill:#2ecc71"/>
    <path d="m-721.25 90.476 49.817 8.4249 46.154-27.106" style="fill:none;stroke-width:1px;stroke:#000"/>
   </g>
   <circle transform="matrix(.92045 0 0 .92045 121.08 27.939)" cx="-616.85" cy="86.447" r="16.117" d="m -600.73258,86.446884 c 0,8.901293 -7.21592,16.117216 -16.11721,16.117216 -8.9013,0 -16.11722,-7.215923 -16.11722,-16.117216 0,-8.901293 7.21592,-16.117216 16.11722,-16.117216 8.90129,0 16.11721,7.215923 16.11721,16.117216 z" style="fill:#e74c3c"/>
   <circle transform="matrix(.30682 0 0 .23864 -262.2 82.118)" cx="-616.85" cy="86.447" r="16.117" d="m -600.73258,86.446884 c 0,8.901293 -7.21592,16.117216 -16.11721,16.117216 -8.9013,0 -16.11722,-7.215923 -16.11722,-16.117216 0,-8.901293 7.21592,-16.117216 16.11722,-16.117216 8.90129,0 16.11721,7.215923 16.11721,16.117216 z" style="fill:#fff"/>
   <circle transform="matrix(.30682 0 0 .23864 -262.57 91.275)" cx="-616.85" cy="86.447" r="16.117" d="m -600.73258,86.446884 c 0,8.901293 -7.21592,16.117216 -16.11721,16.117216 -8.9013,0 -16.11722,-7.215923 -16.11722,-16.117216 0,-8.901293 7.21592,-16.117216 16.11722,-16.117216 8.90129,0 16.11721,7.215923 16.11721,16.117216 z" style="fill:#fff"/>
   <circle transform="matrix(.25592 .16924 -.13163 .19905 -271.6 188.47)" cx="-616.85" cy="86.447" r="16.117" d="m -600.73258,86.446884 c 0,8.901293 -7.21592,16.117216 -16.11721,16.117216 -8.9013,0 -16.11722,-7.215923 -16.11722,-16.117216 0,-8.901293 7.21592,-16.117216 16.11722,-16.117216 8.90129,0 16.11721,7.215923 16.11721,16.117216 z" style="fill:#fff"/>
   <circle transform="matrix(.20455 0 0 .15909 -314.49 95.405)" cx="-616.85" cy="86.447" r="16.117" d="m -600.73258,86.446884 c 0,8.901293 -7.21592,16.117216 -16.11721,16.117216 -8.9013,0 -16.11722,-7.215923 -16.11722,-16.117216 0,-8.901293 7.21592,-16.117216 16.11722,-16.117216 8.90129,0 16.11721,7.215923 16.11721,16.117216 z" style="fill:#fff"/>
   <circle transform="matrix(.17296 -.098833 .07687 .13452 -342.81 43.694)" cx="-616.85" cy="86.447" r="16.117" d="m -600.73258,86.446884 c 0,8.901293 -7.21592,16.117216 -16.11721,16.117216 -8.9013,0 -16.11722,-7.215923 -16.11722,-16.117216 0,-8.901293 7.21592,-16.117216 16.11722,-16.117216 8.90129,0 16.11721,7.215923 16.11721,16.117216 z" style="fill:#fff"/>
   <g transform="matrix(.85279 0 0 .85279 -61 24.71)">
    <g transform="translate(32.234 60.44)" style="filter:url(#filter9198)">
     <circle transform="matrix(.92045 0 0 .92045 121.08 27.939)" cx="-616.85" cy="86.447" r="16.117" d="m -600.73258,86.446884 c 0,8.901293 -7.21592,16.117216 -16.11721,16.117216 -8.9013,0 -16.11722,-7.215923 -16.11722,-16.117216 0,-8.901293 7.21592,-16.117216 16.11722,-16.117216 8.90129,0 16.11721,7.215923 16.11721,16.117216 z"/>
     <circle transform="matrix(.30682 0 0 .23864 -262.2 82.118)" cx="-616.85" cy="86.447" r="16.117" d="m -600.73258,86.446884 c 0,8.901293 -7.21592,16.117216 -16.11721,16.117216 -8.9013,0 -16.11722,-7.215923 -16.11722,-16.117216 0,-8.901293 7.21592,-16.117216 16.11722,-16.117216 8.90129,0 16.11721,7.215923 16.11721,16.117216 z"/>
     <circle transform="matrix(.30682 0 0 .23864 -262.57 91.275)" cx="-616.85" cy="86.447" r="16.117" d="m -600.73258,86.446884 c 0,8.901293 -7.21592,16.117216 -16.11721,16.117216 -8.9013,0 -16.11722,-7.215923 -16.11722,-16.117216 0,-8.901293 7.21592,-16.117216 16.11722,-16.117216 8.90129,0 16.11721,7.215923 16.11721,16.117216 z"/>
     <circle transform="matrix(.25592 .16924 -.13163 .19905 -271.6 188.47)" cx="-616.85" cy="86.447" r="16.117" d="m -600.73258,86.446884 c 0,8.901293 -7.21592,16.117216 -16.11721,16.117216 -8.9013,0 -16.11722,-7.215923 -16.11722,-16.117216 0,-8.901293 7.21592,-16.117216 16.11722,-16.117216 8.90129,0 16.11721,7.215923 16.11721,16.117216 z"/>
     <circle transform="matrix(.20455 0 0 .15909 -314.49 95.405)" cx="-616.85" cy="86.447" r="16.117" d="m -600.73258,86.446884 c 0,8.901293 -7.21592,16.117216 -16.11721,16.117216 -8.9013,0 -16.11722,-7.215923 -16.11722,-16.117216 0,-8.901293 7.21592,-16.117216 16.11722,-16.117216 8.90129,0 16.11721,7.215923 16.11721,16.117216 z"/>
     <circle transform="matrix(.17296 -.098833 .07687 .13452 -342.81 43.694)" cx="-616.85" cy="86.447" r="16.117" d="m -600.73258,86.446884 c 0,8.901293 -7.21592,16.117216 -16.11721,16.117216 -8.9013,0 -16.11722,-7.215923 -16.11722,-16.117216 0,-8.901293 7.21592,-16.117216 16.11722,-16.117216 8.90129,0 16.11721,7.215923 16.11721,16.117216 z"/>
    </g>
    <g transform="translate(33.136 59.538)">
     <circle transform="matrix(.92045 0 0 .92045 121.08 27.939)" cx="-616.85" cy="86.447" r="16.117" d="m -600.73258,86.446884 c 0,8.901293 -7.21592,16.117216 -16.11721,16.117216 -8.9013,0 -16.11722,-7.215923 -16.11722,-16.117216 0,-8.901293 7.21592,-16.117216 16.11722,-16.117216 8.90129,0 16.11721,7.215923 16.11721,16.117216 z" style="fill:#e74c3c"/>
     <circle transform="matrix(.30682 0 0 .23864 -262.2 82.118)" cx="-616.85" cy="86.447" r="16.117" d="m -600.73258,86.446884 c 0,8.901293 -7.21592,16.117216 -16.11721,16.117216 -8.9013,0 -16.11722,-7.215923 -16.11722,-16.117216 0,-8.901293 7.21592,-16.117216 16.11722,-16.117216 8.90129,0 16.11721,7.215923 16.11721,16.117216 z" style="fill:#fff"/>
     <circle transform="matrix(.30682 0 0 .23864 -262.57 91.275)" cx="-616.85" cy="86.447" r="16.117" d="m -600.73258,86.446884 c 0,8.901293 -7.21592,16.117216 -16.11721,16.117216 -8.9013,0 -16.11722,-7.215923 -16.11722,-16.117216 0,-8.901293 7.21592,-16.117216 16.11722,-16.117216 8.90129,0 16.11721,7.215923 16.11721,16.117216 z" style="fill:#fff"/>
     <circle transform="matrix(.25592 .16924 -.13163 .19905 -271.6 188.47)" cx="-616.85" cy="86.447" r="16.117" d="m -600.73258,86.446884 c 0,8.901293 -7.21592,16.117216 -16.11721,16.117216 -8.9013,0 -16.11722,-7.215923 -16.11722,-16.117216 0,-8.901293 7.21592,-16.117216 16.11722,-16.117216 8.90129,0 16.11721,7.215923 16.11721,16.117216 z" style="fill:#fff"/>
     <circle transform="matrix(.20455 0 0 .15909 -314.49 95.405)" cx="-616.85" cy="86.447" r="16.117" d="m -600.73258,86.446884 c 0,8.901293 -7.21592,16.117216 -16.11721,16.117216 -8.9013,0 -16.11722,-7.215923 -16.11722,-16.117216 0,-8.901293 7.21592,-16.117216 16.11722,-16.117216 8.90129,0 16.11721,7.215923 16.11721,16.117216 z" style="fill:#fff"/>
     <circle transform="matrix(.17296 -.098833 .07687 .13452 -342.81 43.694)" cx="-616.85" cy="86.447" r="16.117" d="m -600.73258,86.446884 c 0,8.901293 -7.21592,16.117216 -16.11721,16.117216 -8.9013,0 -16.11722,-7.215923 -16.11722,-16.117216 0,-8.901293 7.21592,-16.117216 16.11722,-16.117216 8.90129,0 16.11721,7.215923 16.11721,16.117216 z" style="fill:#fff"/>
    </g>
   </g>
   <g transform="matrix(-.85279 0 0 .85279 -725.99 -61.371)">
    <g transform="translate(32.234 60.44)" style="filter:url(#filter9198)">
     <circle transform="matrix(.92045 0 0 .92045 121.08 27.939)" cx="-616.85" cy="86.447" r="16.117" d="m -600.73258,86.446884 c 0,8.901293 -7.21592,16.117216 -16.11721,16.117216 -8.9013,0 -16.11722,-7.215923 -16.11722,-16.117216 0,-8.901293 7.21592,-16.117216 16.11722,-16.117216 8.90129,0 16.11721,7.215923 16.11721,16.117216 z"/>
     <circle transform="matrix(.30682 0 0 .23864 -262.2 82.118)" cx="-616.85" cy="86.447" r="16.117" d="m -600.73258,86.446884 c 0,8.901293 -7.21592,16.117216 -16.11721,16.117216 -8.9013,0 -16.11722,-7.215923 -16.11722,-16.117216 0,-8.901293 7.21592,-16.117216 16.11722,-16.117216 8.90129,0 16.11721,7.215923 16.11721,16.117216 z"/>
     <circle transform="matrix(.30682 0 0 .23864 -262.57 91.275)" cx="-616.85" cy="86.447" r="16.117" d="m -600.73258,86.446884 c 0,8.901293 -7.21592,16.117216 -16.11721,16.117216 -8.9013,0 -16.11722,-7.215923 -16.11722,-16.117216 0,-8.901293 7.21592,-16.117216 16.11722,-16.117216 8.90129,0 16.11721,7.215923 16.11721,16.117216 z"/>
     <circle transform="matrix(.25592 .16924 -.13163 .19905 -271.6 188.47)" cx="-616.85" cy="86.447" r="16.117" d="m -600.73258,86.446884 c 0,8.901293 -7.21592,16.117216 -16.11721,16.117216 -8.9013,0 -16.11722,-7.215923 -16.11722,-16.117216 0,-8.901293 7.21592,-16.117216 16.11722,-16.117216 8.90129,0 16.11721,7.215923 16.11721,16.117216 z"/>
     <circle transform="matrix(.20455 0 0 .15909 -314.49 95.405)" cx="-616.85" cy="86.447" r="16.117" d="m -600.73258,86.446884 c 0,8.901293 -7.21592,16.117216 -16.11721,16.117216 -8.9013,0 -16.11722,-7.215923 -16.11722,-16.117216 0,-8.901293 7.21592,-16.117216 16.11722,-16.117216 8.90129,0 16.11721,7.215923 16.11721,16.117216 z"/>
     <circle transform="matrix(.17296 -.098833 .07687 .13452 -342.81 43.694)" cx="-616.85" cy="86.447" r="16.117" d="m -600.73258,86.446884 c 0,8.901293 -7.21592,16.117216 -16.11721,16.117216 -8.9013,0 -16.11722,-7.215923 -16.11722,-16.117216 0,-8.901293 7.21592,-16.117216 16.11722,-16.117216 8.90129,0 16.11721,7.215923 16.11721,16.117216 z"/>
    </g>
    <g transform="translate(33.136 59.538)">
     <circle transform="matrix(.92045 0 0 .92045 121.08 27.939)" cx="-616.85" cy="86.447" r="16.117" d="m -600.73258,86.446884 c 0,8.901293 -7.21592,16.117216 -16.11721,16.117216 -8.9013,0 -16.11722,-7.215923 -16.11722,-16.117216 0,-8.901293 7.21592,-16.117216 16.11722,-16.117216 8.90129,0 16.11721,7.215923 16.11721,16.117216 z" style="fill:#e74c3c"/>
     <circle transform="matrix(.30682 0 0 .23864 -262.2 82.118)" cx="-616.85" cy="86.447" r="16.117" d="m -600.73258,86.446884 c 0,8.901293 -7.21592,16.117216 -16.11721,16.117216 -8.9013,0 -16.11722,-7.215923 -16.11722,-16.117216 0,-8.901293 7.21592,-16.117216 16.11722,-16.117216 8.90129,0 16.11721,7.215923 16.11721,16.117216 z" style="fill:#fff"/>
     <circle transform="matrix(.30682 0 0 .23864 -262.57 91.275)" cx="-616.85" cy="86.447" r="16.117" d="m -600.73258,86.446884 c 0,8.901293 -7.21592,16.117216 -16.11721,16.117216 -8.9013,0 -16.11722,-7.215923 -16.11722,-16.117216 0,-8.901293 7.21592,-16.117216 16.11722,-16.117216 8.90129,0 16.11721,7.215923 16.11721,16.117216 z" style="fill:#fff"/>
     <circle transform="matrix(.25592 .16924 -.13163 .19905 -271.6 188.47)" cx="-616.85" cy="86.447" r="16.117" d="m -600.73258,86.446884 c 0,8.901293 -7.21592,16.117216 -16.11721,16.117216 -8.9013,0 -16.11722,-7.215923 -16.11722,-16.117216 0,-8.901293 7.21592,-16.117216 16.11722,-16.117216 8.90129,0 16.11721,7.215923 16.11721,16.117216 z" style="fill:#fff"/>
     <circle transform="matrix(.20455 0 0 .15909 -314.49 95.405)" cx="-616.85" cy="86.447" r="16.117" d="m -600.73258,86.446884 c 0,8.901293 -7.21592,16.117216 -16.11721,16.117216 -8.9013,0 -16.11722,-7.215923 -16.11722,-16.117216 0,-8.901293 7.21592,-16.117216 16.11722,-16.117216 8.90129,0 16.11721,7.215923 16.11721,16.117216 z" style="fill:#fff"/>
     <circle transform="matrix(.17296 -.098833 .07687 .13452 -342.81 43.694)" cx="-616.85" cy="86.447" r="16.117" d="m -600.73258,86.446884 c 0,8.901293 -7.21592,16.117216 -16.11721,16.117216 -8.9013,0 -16.11722,-7.215923 -16.11722,-16.117216 0,-8.901293 7.21592,-16.117216 16.11722,-16.117216 8.90129,0 16.11721,7.215923 16.11721,16.117216 z" style="fill:#fff"/>
    </g>
   </g>
   <g transform="matrix(-.96063 0 0 .96063 -728.33 -16.246)">
    <g transform="translate(32.234 60.44)" style="filter:url(#filter9198)">
     <circle transform="matrix(.92045 0 0 .92045 121.08 27.939)" cx="-616.85" cy="86.447" r="16.117" d="m -600.73258,86.446884 c 0,8.901293 -7.21592,16.117216 -16.11721,16.117216 -8.9013,0 -16.11722,-7.215923 -16.11722,-16.117216 0,-8.901293 7.21592,-16.117216 16.11722,-16.117216 8.90129,0 16.11721,7.215923 16.11721,16.117216 z"/>
     <circle transform="matrix(.30682 0 0 .23864 -262.2 82.118)" cx="-616.85" cy="86.447" r="16.117" d="m -600.73258,86.446884 c 0,8.901293 -7.21592,16.117216 -16.11721,16.117216 -8.9013,0 -16.11722,-7.215923 -16.11722,-16.117216 0,-8.901293 7.21592,-16.117216 16.11722,-16.117216 8.90129,0 16.11721,7.215923 16.11721,16.117216 z"/>
     <circle transform="matrix(.30682 0 0 .23864 -262.57 91.275)" cx="-616.85" cy="86.447" r="16.117" d="m -600.73258,86.446884 c 0,8.901293 -7.21592,16.117216 -16.11721,16.117216 -8.9013,0 -16.11722,-7.215923 -16.11722,-16.117216 0,-8.901293 7.21592,-16.117216 16.11722,-16.117216 8.90129,0 16.11721,7.215923 16.11721,16.117216 z"/>
     <circle transform="matrix(.25592 .16924 -.13163 .19905 -271.6 188.47)" cx="-616.85" cy="86.447" r="16.117" d="m -600.73258,86.446884 c 0,8.901293 -7.21592,16.117216 -16.11721,16.117216 -8.9013,0 -16.11722,-7.215923 -16.11722,-16.117216 0,-8.901293 7.21592,-16.117216 16.11722,-16.117216 8.90129,0 16.11721,7.215923 16.11721,16.117216 z"/>
     <circle transform="matrix(.20455 0 0 .15909 -314.49 95.405)" cx="-616.85" cy="86.447" r="16.117" d="m -600.73258,86.446884 c 0,8.901293 -7.21592,16.117216 -16.11721,16.117216 -8.9013,0 -16.11722,-7.215923 -16.11722,-16.117216 0,-8.901293 7.21592,-16.117216 16.11722,-16.117216 8.90129,0 16.11721,7.215923 16.11721,16.117216 z"/>
     <circle transform="matrix(.17296 -.098833 .07687 .13452 -342.81 43.694)" cx="-616.85" cy="86.447" r="16.117" d="m -600.73258,86.446884 c 0,8.901293 -7.21592,16.117216 -16.11721,16.117216 -8.9013,0 -16.11722,-7.215923 -16.11722,-16.117216 0,-8.901293 7.21592,-16.117216 16.11722,-16.117216 8.90129,0 16.11721,7.215923 16.11721,16.117216 z"/>
    </g>
    <g transform="translate(33.136 59.538)">
     <circle transform="matrix(.92045 0 0 .92045 121.08 27.939)" cx="-616.85" cy="86.447" r="16.117" d="m -600.73258,86.446884 c 0,8.901293 -7.21592,16.117216 -16.11721,16.117216 -8.9013,0 -16.11722,-7.215923 -16.11722,-16.117216 0,-8.901293 7.21592,-16.117216 16.11722,-16.117216 8.90129,0 16.11721,7.215923 16.11721,16.117216 z" style="fill:#e74c3c"/>
     <circle transform="matrix(.30682 0 0 .23864 -262.2 82.118)" cx="-616.85" cy="86.447" r="16.117" d="m -600.73258,86.446884 c 0,8.901293 -7.21592,16.117216 -16.11721,16.117216 -8.9013,0 -16.11722,-7.215923 -16.11722,-16.117216 0,-8.901293 7.21592,-16.117216 16.11722,-16.117216 8.90129,0 16.11721,7.215923 16.11721,16.117216 z" style="fill:#fff"/>
     <circle transform="matrix(.30682 0 0 .23864 -262.57 91.275)" cx="-616.85" cy="86.447" r="16.117" d="m -600.73258,86.446884 c 0,8.901293 -7.21592,16.117216 -16.11721,16.117216 -8.9013,0 -16.11722,-7.215923 -16.11722,-16.117216 0,-8.901293 7.21592,-16.117216 16.11722,-16.117216 8.90129,0 16.11721,7.215923 16.11721,16.117216 z" style="fill:#fff"/>
     <circle transform="matrix(.25592 .16924 -.13163 .19905 -271.6 188.47)" cx="-616.85" cy="86.447" r="16.117" d="m -600.73258,86.446884 c 0,8.901293 -7.21592,16.117216 -16.11721,16.117216 -8.9013,0 -16.11722,-7.215923 -16.11722,-16.117216 0,-8.901293 7.21592,-16.117216 16.11722,-16.117216 8.90129,0 16.11721,7.215923 16.11721,16.117216 z" style="fill:#fff"/>
     <circle transform="matrix(.20455 0 0 .15909 -314.49 95.405)" cx="-616.85" cy="86.447" r="16.117" d="m -600.73258,86.446884 c 0,8.901293 -7.21592,16.117216 -16.11721,16.117216 -8.9013,0 -16.11722,-7.215923 -16.11722,-16.117216 0,-8.901293 7.21592,-16.117216 16.11722,-16.117216 8.90129,0 16.11721,7.215923 16.11721,16.117216 z" style="fill:#fff"/>
     <circle transform="matrix(.17296 -.098833 .07687 .13452 -342.81 43.694)" cx="-616.85" cy="86.447" r="16.117" d="m -600.73258,86.446884 c 0,8.901293 -7.21592,16.117216 -16.11721,16.117216 -8.9013,0 -16.11722,-7.215923 -16.11722,-16.117216 0,-8.901293 7.21592,-16.117216 16.11722,-16.117216 8.90129,0 16.11721,7.215923 16.11721,16.117216 z" style="fill:#fff"/>
    </g>
   </g>
   <g transform="matrix(-.86249 0 0 .86249 -725.39 30.264)">
    <g transform="translate(32.234 60.44)" style="filter:url(#filter9198)">
     <circle transform="matrix(.92045 0 0 .92045 121.08 27.939)" cx="-616.85" cy="86.447" r="16.117" d="m -600.73258,86.446884 c 0,8.901293 -7.21592,16.117216 -16.11721,16.117216 -8.9013,0 -16.11722,-7.215923 -16.11722,-16.117216 0,-8.901293 7.21592,-16.117216 16.11722,-16.117216 8.90129,0 16.11721,7.215923 16.11721,16.117216 z"/>
     <circle transform="matrix(.30682 0 0 .23864 -262.2 82.118)" cx="-616.85" cy="86.447" r="16.117" d="m -600.73258,86.446884 c 0,8.901293 -7.21592,16.117216 -16.11721,16.117216 -8.9013,0 -16.11722,-7.215923 -16.11722,-16.117216 0,-8.901293 7.21592,-16.117216 16.11722,-16.117216 8.90129,0 16.11721,7.215923 16.11721,16.117216 z"/>
     <circle transform="matrix(.30682 0 0 .23864 -262.57 91.275)" cx="-616.85" cy="86.447" r="16.117" d="m -600.73258,86.446884 c 0,8.901293 -7.21592,16.117216 -16.11721,16.117216 -8.9013,0 -16.11722,-7.215923 -16.11722,-16.117216 0,-8.901293 7.21592,-16.117216 16.11722,-16.117216 8.90129,0 16.11721,7.215923 16.11721,16.117216 z"/>
     <circle transform="matrix(.25592 .16924 -.13163 .19905 -271.6 188.47)" cx="-616.85" cy="86.447" r="16.117" d="m -600.73258,86.446884 c 0,8.901293 -7.21592,16.117216 -16.11721,16.117216 -8.9013,0 -16.11722,-7.215923 -16.11722,-16.117216 0,-8.901293 7.21592,-16.117216 16.11722,-16.117216 8.90129,0 16.11721,7.215923 16.11721,16.117216 z"/>
     <circle transform="matrix(.20455 0 0 .15909 -314.49 95.405)" cx="-616.85" cy="86.447" r="16.117" d="m -600.73258,86.446884 c 0,8.901293 -7.21592,16.117216 -16.11721,16.117216 -8.9013,0 -16.11722,-7.215923 -16.11722,-16.117216 0,-8.901293 7.21592,-16.117216 16.11722,-16.117216 8.90129,0 16.11721,7.215923 16.11721,16.117216 z"/>
     <circle transform="matrix(.17296 -.098833 .07687 .13452 -342.81 43.694)" cx="-616.85" cy="86.447" r="16.117" d="m -600.73258,86.446884 c 0,8.901293 -7.21592,16.117216 -16.11721,16.117216 -8.9013,0 -16.11722,-7.215923 -16.11722,-16.117216 0,-8.901293 7.21592,-16.117216 16.11722,-16.117216 8.90129,0 16.11721,7.215923 16.11721,16.117216 z"/>
    </g>
    <g transform="translate(33.136 59.538)">
     <circle transform="matrix(.92045 0 0 .92045 121.08 27.939)" cx="-616.85" cy="86.447" r="16.117" d="m -600.73258,86.446884 c 0,8.901293 -7.21592,16.117216 -16.11721,16.117216 -8.9013,0 -16.11722,-7.215923 -16.11722,-16.117216 0,-8.901293 7.21592,-16.117216 16.11722,-16.117216 8.90129,0 16.11721,7.215923 16.11721,16.117216 z" style="fill:#e74c3c"/>
     <circle transform="matrix(.30682 0 0 .23864 -262.2 82.118)" cx="-616.85" cy="86.447" r="16.117" d="m -600.73258,86.446884 c 0,8.901293 -7.21592,16.117216 -16.11721,16.117216 -8.9013,0 -16.11722,-7.215923 -16.11722,-16.117216 0,-8.901293 7.21592,-16.117216 16.11722,-16.117216 8.90129,0 16.11721,7.215923 16.11721,16.117216 z" style="fill:#fff"/>
     <circle transform="matrix(.30682 0 0 .23864 -262.57 91.275)" cx="-616.85" cy="86.447" r="16.117" d="m -600.73258,86.446884 c 0,8.901293 -7.21592,16.117216 -16.11721,16.117216 -8.9013,0 -16.11722,-7.215923 -16.11722,-16.117216 0,-8.901293 7.21592,-16.117216 16.11722,-16.117216 8.90129,0 16.11721,7.215923 16.11721,16.117216 z" style="fill:#fff"/>
     <circle transform="matrix(.25592 .16924 -.13163 .19905 -271.6 188.47)" cx="-616.85" cy="86.447" r="16.117" d="m -600.73258,86.446884 c 0,8.901293 -7.21592,16.117216 -16.11721,16.117216 -8.9013,0 -16.11722,-7.215923 -16.11722,-16.117216 0,-8.901293 7.21592,-16.117216 16.11722,-16.117216 8.90129,0 16.11721,7.215923 16.11721,16.117216 z" style="fill:#fff"/>
     <circle transform="matrix(.20455 0 0 .15909 -314.49 95.405)" cx="-616.85" cy="86.447" r="16.117" d="m -600.73258,86.446884 c 0,8.901293 -7.21592,16.117216 -16.11721,16.117216 -8.9013,0 -16.11722,-7.215923 -16.11722,-16.117216 0,-8.901293 7.21592,-16.117216 16.11722,-16.117216 8.90129,0 16.11721,7.215923 16.11721,16.117216 z" style="fill:#fff"/>
     <circle transform="matrix(.17296 -.098833 .07687 .13452 -342.81 43.694)" cx="-616.85" cy="86.447" r="16.117" d="m -600.73258,86.446884 c 0,8.901293 -7.21592,16.117216 -16.11721,16.117216 -8.9013,0 -16.11722,-7.215923 -16.11722,-16.117216 0,-8.901293 7.21592,-16.117216 16.11722,-16.117216 8.90129,0 16.11721,7.215923 16.11721,16.117216 z" style="fill:#fff"/>
    </g>
   </g>
   <g transform="matrix(.71982 -.26751 .21973 .59126 -54.229 -117.08)">
    <ellipse cx="-530.77" cy="75.275" rx="17.216" ry="11.905" d="m -513.55311,75.274727 c 0,6.574819 -7.70792,11.904762 -17.21612,11.904762 -9.5082,0 -17.21611,-5.329943 -17.21611,-11.904762 0,-6.574819 7.70791,-11.904762 17.21611,-11.904762 9.5082,0 17.21612,5.329943 17.21612,11.904762 z"/>
    <path d="m-546.15 72.527s4.2534-7.5667 14.25-7.5115c12.639 0.06983 16.152 7.0531 16.152 7.0531s-4.5139-4.8593-16.075-4.03c-6.4597 0.46338-14.328 4.4883-14.328 4.4883z" style="fill:#fff"/>
    <path d="m-547.64 74.542s4.6915-7.9357 15.718-7.8778c13.941 0.07324 17.816 7.3971 17.816 7.3971s-4.9788-5.0963-17.73-4.2265c-7.1249 0.48598-15.803 4.7072-15.803 4.7072z" style="fill:#ccc"/>
   </g>
   <g transform="matrix(.71982 .26751 .21973 -.59126 -41.042 294.74)">
    <ellipse cx="-530.77" cy="75.275" rx="17.216" ry="11.905" d="m -513.55311,75.274727 c 0,6.574819 -7.70792,11.904762 -17.21612,11.904762 -9.5082,0 -17.21611,-5.329943 -17.21611,-11.904762 0,-6.574819 7.70791,-11.904762 17.21611,-11.904762 9.5082,0 17.21612,5.329943 17.21612,11.904762 z"/>
    <path d="m-546.15 72.527s4.2534-7.5667 14.25-7.5115c12.639 0.06983 16.152 7.0531 16.152 7.0531s-4.5139-4.8593-16.075-4.03c-6.4597 0.46338-14.328 4.4883-14.328 4.4883z" style="fill:#fff"/>
    <path d="m-547.64 74.542s4.6915-7.9357 15.718-7.8778c13.941 0.07324 17.816 7.3971 17.816 7.3971s-4.9788-5.0963-17.73-4.2265c-7.1249 0.48598-15.803 4.7072-15.803 4.7072z" style="fill:#ccc"/>
   </g>
   <g transform="matrix(-.71982 -.26751 -.21973 .59126 -706.88 -98.033)">
    <ellipse cx="-530.77" cy="75.275" rx="17.216" ry="11.905" d="m -513.55311,75.274727 c 0,6.574819 -7.70792,11.904762 -17.21612,11.904762 -9.5082,0 -17.21611,-5.329943 -17.21611,-11.904762 0,-6.574819 7.70791,-11.904762 17.21611,-11.904762 9.5082,0 17.21612,5.329943 17.21612,11.904762 z"/>
    <path d="m-546.15 72.527s4.2534-7.5667 14.25-7.5115c12.639 0.06983 16.152 7.0531 16.152 7.0531s-4.5139-4.8593-16.075-4.03c-6.4597 0.46338-14.328 4.4883-14.328 4.4883z" style="fill:#fff"/>
    <path d="m-547.64 74.542s4.6915-7.9357 15.718-7.8778c13.941 0.07324 17.816 7.3971 17.816 7.3971s-4.9788-5.0963-17.73-4.2265c-7.1249 0.48598-15.803 4.7072-15.803 4.7072z" style="fill:#ccc"/>
   </g>
   <g transform="matrix(.64661 .41424 -.34026 .53113 -68.514 337.94)">
    <ellipse cx="-530.77" cy="75.275" rx="17.216" ry="11.905" d="m -513.55311,75.274727 c 0,6.574819 -7.70792,11.904762 -17.21612,11.904762 -9.5082,0 -17.21611,-5.329943 -17.21611,-11.904762 0,-6.574819 7.70791,-11.904762 17.21611,-11.904762 9.5082,0 17.21612,5.329943 17.21612,11.904762 z"/>
    <path d="m-546.15 72.527s4.2534-7.5667 14.25-7.5115c12.639 0.06983 16.152 7.0531 16.152 7.0531s-4.5139-4.8593-16.075-4.03c-6.4597 0.46338-14.328 4.4883-14.328 4.4883z" style="fill:#fff"/>
    <path d="m-547.64 74.542s4.6915-7.9357 15.718-7.8778c13.941 0.07324 17.816 7.3971 17.816 7.3971s-4.9788-5.0963-17.73-4.2265c-7.1249 0.48598-15.803 4.7072-15.803 4.7072z" style="fill:#ccc"/>
   </g>
   <g transform="matrix(-.71982 -.26751 -.21973 .59126 -725.92 -35.762)">
    <ellipse cx="-530.77" cy="75.275" rx="17.216" ry="11.905" d="m -513.55311,75.274727 c 0,6.574819 -7.70792,11.904762 -17.21612,11.904762 -9.5082,0 -17.21611,-5.329943 -17.21611,-11.904762 0,-6.574819 7.70791,-11.904762 17.21611,-11.904762 9.5082,0 17.21612,5.329943 17.21612,11.904762 z"/>
    <path d="m-546.15 72.527s4.2534-7.5667 14.25-7.5115c12.639 0.06983 16.152 7.0531 16.152 7.0531s-4.5139-4.8593-16.075-4.03c-6.4597 0.46338-14.328 4.4883-14.328 4.4883z" style="fill:#fff"/>
    <path d="m-547.64 74.542s4.6915-7.9357 15.718-7.8778c13.941 0.07324 17.816 7.3971 17.816 7.3971s-4.9788-5.0963-17.73-4.2265c-7.1249 0.48598-15.803 4.7072-15.803 4.7072z" style="fill:#ccc"/>
   </g>
   <path d="m-396.56 37.469c-26.597-0.29034-51.362 16.258-64.292 39.001-20.824 35.152-15.646 84.242 13.957 112.93 14.509 14.371 35.208 22.713 55.698 20.855-15.751-44.511-17.783-49.918-14.652-87.38 4.6164-55.235 5.4945-54.957 14.652-85.182-1.7841-0.13814-3.5731-0.21877-5.3627-0.21875z" style="fill:#fff;opacity:.3"/>
   <path d="m-386.97 27.1c-53.5 0-96.875 43.375-96.875 96.875 0 53.5 43.375 96.875 96.875 96.875s96.875-43.375 96.875-96.875c0-53.5-43.375-96.875-96.875-96.875zm0 10.375c47.778 0 86.5 38.722 86.5 86.5 0 47.778-38.722 86.531-86.5 86.531s-86.5-38.753-86.5-86.531c0-47.778 38.722-86.5 86.5-86.5z" style="fill:#e67e22"/>
  </g>
 </g>
</svg>
