<?xml version="1.0" encoding="UTF-8"?>
<svg width="512pt" height="512pt" version="1.1" viewBox="-1 0 512 512" xmlns="http://www.w3.org/2000/svg">
 <g fill="#ffa000">
  <path d="m22.508 256c-8.6328 0-15.523 7.2734-14.977 15.891 5.0273 79.684 47.617 149.17 110.25 190.96 7.1758 4.7852 16.914 2.4258 21.227-5.0391l116.52-201.82z"/>
  <path d="m372.06 457.84-116.53-201.84-116.54 201.84c-4.3047 7.457-1.4961 17.059 6.2148 20.883 33.238 16.5 70.695 25.777 110.32 25.777 39.625 0 77.082-9.2773 110.32-25.777 7.7109-3.8242 10.52-13.426 6.2148-20.883z"/>
  <path d="m139.01 54.184c-4.3125-7.4648-14.051-9.8242-21.227-5.0391-62.637 41.797-105.23 111.28-110.25 190.96-0.54688 8.6172 6.3438 15.891 14.977 15.891h233.02z"/>
  <path d="m365.85 33.273c-33.238-16.496-70.695-25.773-110.32-25.773-39.621 0-77.078 9.2773-110.32 25.773-7.7109 3.8281-10.52 13.43-6.2148 20.883l116.54 201.84 116.53-201.84c4.3047-7.457 1.4961-17.059-6.2148-20.887z"/>
  <path d="m503.53 240.11c-5.0312-79.684-47.617-149.17-110.26-190.96-7.1719-4.7852-16.914-2.4258-21.227 5.0391l-116.52 201.82h101l-0.003906 50.062c0 10.234 8.2969 18.531 18.531 18.531h0.47656c10.645 0 19.195-8.5508 19.195-19.102v-6.8789c0-6.5742 5.3281-11.898 11.898-11.898 6.5742 0 11.902 5.3281 11.902 11.898v53.457c0 8.0469 6.5234 14.574 14.57 14.574 8.0469 0 14.57-6.5273 14.57-14.574v-96.07h40.875c8.6367 0 15.527-7.2734 14.984-15.891z"/>
 </g>
 <path d="m48.242 256c0 12.398-2.8906 24.891-0.82422 36.695 2.1289 12.141 9.1523 22.895 13.273 34.219 4.1953 11.527 5.7656 24.266 11.828 34.746 6.1211 10.574 16.402 18.281 24.215 27.582 7.8359 9.3281 13.652 20.781 22.98 28.617 9.3008 7.8125 21.578 11.566 32.152 17.688l103.66-179.55z" fill="#ffe082"/>
 <path d="m203.98 256-90.105 156.06c11.438 13.074 24.062 15.426 37.988 23.484l103.66-179.55z" fill="#ffb300"/>
 <path d="m151.87 435.55c10.441 6.0312 19.84 14.852 31.379 19.051 11.324 4.1211 24.137 3.4453 36.277 5.5742 11.805 2.0664 23.609 7.1133 36.008 7.1133s24.199-5.0469 36.004-7.1133c12.141-2.1289 24.953-1.4531 36.277-5.5742 11.527-4.1953 20.895-12.988 31.371-19.051 0.003906 0 0.003906 0 0.007812-0.003906l-103.66-179.54z" fill="#ffe082"/>
 <path d="m255.53 256-14.227 24.641 77.887 134.91h-0.007812c-10.477 6.0625-19.844 14.855-31.371 19.051-11.324 4.125-24.137 3.4453-36.277 5.5742-11.805 2.0664-23.605 7.1133-36.004 7.1133s-24.203-5.0469-36.008-7.1133c-8.1289-1.4258-16.559-1.5977-24.641-2.7891 9.3008 5.8906 17.953 13.426 28.363 17.215 11.328 4.125 24.137 3.4492 36.277 5.5742 11.809 2.0664 23.609 7.1172 36.008 7.1172s24.199-5.0508 36.004-7.1172c12.145-2.125 24.953-1.4492 36.277-5.5742 11.527-4.1953 20.895-12.984 31.375-19.047 0-0.003906 0-0.003906 0.003906-0.003906z" fill="#ffb300"/>
 <path d="m151.87 76.453c-10.574 6.1211-22.852 9.875-32.152 17.688-9.3281 7.8359-15.145 19.289-22.98 28.621-7.8164 9.3008-18.094 17.004-24.215 27.582-6.0625 10.477-7.6328 23.219-11.828 34.742-4.125 11.324-11.145 22.078-13.273 34.219-2.0664 11.805 0.82422 24.297 0.82422 36.695h207.29z" fill="#ffe082"/>
 <path d="m151.87 76.453c-7.0664 4.0898-14.895 7.1289-22.086 11.027l68.426 118.52c7.6992 13.332-1.9219 30-17.32 30h-133.93c0.44922 6.6133 1.2852 13.32 1.2852 20h207.29z" fill="#ffb300"/>
 <path d="m327.81 57.402c-11.324-4.1211-24.137-3.4453-36.277-5.5742-11.805-2.0664-23.609-7.1133-36.008-7.1133-12.398 0-24.199 5.0469-36.004 7.1133-12.141 2.1289-24.953 1.4531-36.277 5.5742-10.73 3.9062-18.203 10.945-31.379 19.051l103.66 179.55 103.66-179.55c-10.441-6.0312-19.84-14.852-31.379-19.051z" fill="#ffe082"/>
 <path d="m327.81 57.402c-3.7422-1.3633-7.6484-2.1953-11.633-2.7812 0.97266 0.61719 2.0039 1.25 3.0117 1.8359l-89.438 154.9 25.777 44.641 103.66-179.55c-10.441-6.0312-19.84-14.852-31.379-19.051z" fill="#ffb300"/>
 <path d="m447.67 256h15.145c0-12.398 2.8906-24.891 0.82422-36.695-2.1289-12.141-9.1523-22.895-13.273-34.219-4.1953-11.527-5.7656-24.266-11.828-34.746-6.1211-10.574-16.402-18.281-24.215-27.582-7.8359-9.3281-13.652-20.781-22.98-28.617-9.3008-7.8125-21.578-11.566-32.152-17.688l-103.66 179.55h101l-0.003906 50.062c0 10.234 8.2969 18.531 18.531 18.531h0.47656c10.645 0 19.195-8.5508 19.195-19.102v-6.8789c0-6.5742 5.3281-11.898 11.898-11.898 6.5742 0 11.898 5.3242 11.898 11.898v53.457c0 8.0469 6.5273 14.57 14.574 14.57 8.0469 0 14.57-6.5234 14.57-14.57z" fill="#ffe082"/>
 <path d="m463.64 219.3c-2.1289-12.141-9.1523-22.895-13.273-34.219-4.1953-11.527-5.7656-24.266-11.828-34.746-6.1211-10.574-16.402-18.281-24.215-27.582-7.8359-9.3281-13.652-20.781-22.98-28.617-9.3008-7.8125-21.578-11.566-32.152-17.688l-2.0117 3.4844c6.2148 7.1055 11.078 15.598 17.145 22.82 7.8125 9.3008 18.094 17.008 24.215 27.582 6.0625 10.48 7.6328 23.219 11.828 34.746 4.125 11.324 11.145 22.074 13.273 34.219 0.019531 0.11719 0.039063 0.23437 0.058594 0.35156 3.1758 19.07-11.84 36.344-31.172 36.344h-125.45l-11.547 20h152.14v30.766c6.082 0.53125 10.859 5.6289 10.859 11.848v53.457c0 8.0508 6.5234 14.574 14.57 14.574 8.0469 0 14.57-6.5273 14.57-14.574v-96.07h15.145c0-12.398 2.8906-24.891 0.82422-36.695z" fill="#ffb300"/>
 <g fill="#ef5350">
  <path d="m262.95 400.13c0 16.418-13.312 29.727-29.73 29.727s-29.73-13.309-29.73-29.727c0-16.418 13.312-29.73 29.73-29.73s29.73 13.312 29.73 29.73z"/>
  <path d="m170.26 352.98c0 16.418-13.309 29.73-29.73 29.73-16.418 0-29.727-13.312-29.727-29.73s13.309-29.727 29.727-29.727c16.422 0 29.73 13.309 29.73 29.727z"/>
  <path d="m194.72 199.86c0 16.418-13.312 29.73-29.73 29.73-16.418 0-29.73-13.312-29.73-29.73s13.312-29.73 29.73-29.73c16.418 0 29.73 13.312 29.73 29.73z"/>
  <path d="m257.14 99.117c0 16.418-13.312 29.73-29.73 29.73-16.418 0-29.727-13.312-29.727-29.73 0-16.418 13.309-29.73 29.727-29.73 16.418 0 29.73 13.312 29.73 29.73z"/>
 </g>
 <g fill="#ffa000">
  <path d="m387.73 135.91c0 8.2109-6.6562 14.863-14.863 14.863-8.2109 0-14.867-6.6523-14.867-14.863 0-8.2109 6.6562-14.863 14.867-14.863 8.207 0 14.863 6.6523 14.863 14.863z"/>
  <path d="m339.89 213.11c0 8.2109-6.6562 14.867-14.867 14.867-8.207 0-14.863-6.6562-14.863-14.867 0-8.2109 6.6562-14.863 14.863-14.863 8.2109 0 14.867 6.6523 14.867 14.863z"/>
  <path d="m322.45 91.32c0 8.2109-6.6562 14.863-14.863 14.863-8.2109 0-14.867-6.6523-14.867-14.863 0-8.2109 6.6562-14.867 14.867-14.867 8.207 0 14.863 6.6562 14.863 14.867z"/>
  <path d="m270.39 173.56c0 8.2109-6.6562 14.867-14.867 14.867-8.207 0-14.863-6.6562-14.863-14.867 0-8.207 6.6562-14.863 14.863-14.863 8.2109 0 14.867 6.6562 14.867 14.863z"/>
  <path d="m103.82 219.11c0 8.2109-6.6562 14.867-14.863 14.867-8.2109 0-14.867-6.6562-14.867-14.867 0-8.2109 6.6562-14.863 14.867-14.863 8.207 0 14.863 6.6523 14.863 14.863z"/>
  <path d="m189.2 289.63c0 8.207-6.6562 14.863-14.863 14.863-8.2109 0-14.867-6.6562-14.867-14.863 0-8.2109 6.6562-14.867 14.867-14.867 8.207 0 14.863 6.6562 14.863 14.867z"/>
  <path d="m154.79 124.68c-2.3008-7.8789-10.559-12.402-18.438-10.098-7.8789 2.3008-12.398 10.559-10.098 18.438 2.3047 7.8789 10.559 12.398 18.438 10.098 7.8789-2.3047 12.402-10.559 10.098-18.438z"/>
  <path d="m109.18 300.59c0 8.2109-6.6562 14.867-14.867 14.867-8.207 0-14.863-6.6562-14.863-14.867s6.6562-14.863 14.863-14.863c8.2109 0 14.867 6.6523 14.867 14.863z"/>
  <path d="m318.54 414.99c0 8.2109-6.6523 14.867-14.863 14.867s-14.863-6.6562-14.863-14.867c0-8.207 6.6523-14.863 14.863-14.863s14.863 6.6562 14.863 14.863z"/>
  <path d="m270.39 330.32c0 8.207-6.6562 14.863-14.867 14.863-8.207 0-14.863-6.6562-14.863-14.863 0-8.2109 6.6562-14.867 14.863-14.867 8.2109 0 14.867 6.6562 14.867 14.867z"/>
 </g>
 <path d="m427.86 201.86c0 16.418-13.312 29.73-29.73 29.73-16.418 0-29.727-13.312-29.727-29.73s13.309-29.73 29.727-29.73c16.418 0 29.73 13.312 29.73 29.73z" fill="#ef5350"/>
 <g fill="#d32f2f">
  <path d="m239.41 371.05c11.844 21.98-7.3672 48.457-32.375 43.16 5.0195 9.3164 14.863 15.648 26.188 15.648 16.422 0 29.73-13.309 29.73-29.727 0-14.297-10.094-26.234-23.543-29.082z"/>
  <path d="m146.71 323.91c11.844 21.977-7.3633 48.453-32.375 43.16 5.0234 9.3164 14.863 15.648 26.191 15.648 16.418 0 29.727-13.312 29.727-29.73 0-14.297-10.094-26.23-23.543-29.078z"/>
  <path d="m171.18 170.77c11.84 21.98-7.3672 48.457-32.375 43.16 5.0195 9.3164 14.863 15.652 26.188 15.652 16.418 0 29.73-13.312 29.73-29.73 0-14.297-10.094-26.234-23.543-29.082z"/>
  <path d="m233.6 70.035c11.84 21.98-7.3633 48.457-32.375 43.16 5.0195 9.3164 14.863 15.652 26.188 15.652 16.418 0 29.73-13.312 29.73-29.73 0-14.297-10.094-26.23-23.543-29.082z"/>
  <path d="m404.32 172.78c11.844 21.977-7.3633 48.457-32.375 43.16 5.0195 9.3164 14.863 15.648 26.188 15.648 16.422 0 29.73-13.312 29.73-29.73 0-14.297-10.094-26.234-23.543-29.078z"/>
 </g>
 <path d="m270.45 400.13c0-20.527-16.703-37.23-37.23-37.23-20.531 0-37.23 16.703-37.23 37.23s16.703 37.227 37.23 37.227 37.23-16.699 37.23-37.227zm-59.461 0c0-12.258 9.9727-22.23 22.23-22.23s22.23 9.9727 22.23 22.23c0 12.258-9.9727 22.227-22.23 22.227s-22.23-9.9688-22.23-22.227z"/>
 <path d="m140.53 315.76c-20.527 0-37.227 16.699-37.227 37.227s16.699 37.23 37.227 37.23c20.531 0 37.23-16.703 37.23-37.23s-16.699-37.227-37.23-37.227zm0 59.457c-12.254 0-22.227-9.9727-22.227-22.23s9.9727-22.227 22.227-22.227c12.258 0 22.23 9.9688 22.23 22.227s-9.9727 22.23-22.23 22.23z"/>
 <path d="m164.99 162.62c-20.531 0-37.23 16.703-37.23 37.23 0 20.527 16.699 37.23 37.23 37.23 20.527 0 37.227-16.703 37.227-37.23 0-20.527-16.699-37.23-37.227-37.23zm0 59.461c-12.258 0-22.23-9.9727-22.23-22.23 0-12.258 9.9727-22.23 22.23-22.23 12.254 0 22.227 9.9727 22.227 22.23 0 12.258-9.9688 22.23-22.227 22.23z"/>
 <path d="m264.64 99.117c0-20.527-16.703-37.23-37.23-37.23s-37.227 16.703-37.227 37.23c0 20.527 16.699 37.23 37.227 37.23s37.23-16.703 37.23-37.23zm-59.461 0c0-12.258 9.9727-22.23 22.23-22.23 12.258 0 22.23 9.9727 22.23 22.23 0 12.258-9.9727 22.23-22.23 22.23-12.258 0-22.23-9.9727-22.23-22.23z"/>
 <path d="m395.23 135.91c0-12.332-10.031-22.363-22.363-22.363-12.332 0-22.367 10.031-22.367 22.363 0 12.332 10.035 22.363 22.367 22.363 12.332 0 22.363-10.031 22.363-22.363zm-29.73 0c0-4.0625 3.3047-7.3633 7.3672-7.3633s7.3633 3.3008 7.3633 7.3633-3.3008 7.3633-7.3633 7.3633-7.3672-3.3008-7.3672-7.3633z"/>
 <path d="m325.03 190.75c-12.332 0-22.363 10.031-22.363 22.363s10.031 22.367 22.363 22.367c12.332 0 22.367-10.035 22.367-22.367s-10.035-22.363-22.367-22.363zm0 29.73c-4.0586 0-7.3633-3.3047-7.3633-7.3672 0-4.0586 3.3047-7.3633 7.3633-7.3633 4.0625 0 7.3672 3.3047 7.3672 7.3633 0 4.0625-3.3047 7.3672-7.3672 7.3672z"/>
 <path d="m307.59 113.68c12.332 0 22.363-10.031 22.363-22.363 0-12.332-10.031-22.367-22.363-22.367-12.332 0-22.363 10.035-22.363 22.367 0 12.332 10.031 22.363 22.363 22.363zm0-29.73c4.0586 0 7.3633 3.3047 7.3633 7.3672s-3.3047 7.3633-7.3633 7.3633c-4.0625 0-7.3633-3.3047-7.3633-7.3633 0-4.0625 3.3008-7.3672 7.3633-7.3672z"/>
 <path d="m233.16 173.56c0 12.332 10.035 22.367 22.367 22.367s22.363-10.035 22.363-22.367-10.031-22.363-22.363-22.363c-12.336 0-22.367 10.031-22.367 22.363zm29.73 0c0 4.0625-3.3047 7.3672-7.3672 7.3672-4.0586 0-7.3633-3.3047-7.3633-7.3672 0-4.0586 3.3047-7.3633 7.3633-7.3633 4.0625 0 7.3672 3.3047 7.3672 7.3633z"/>
 <path d="m88.961 196.75c-12.332 0-22.363 10.031-22.363 22.363s10.031 22.367 22.363 22.367c12.332 0 22.363-10.035 22.363-22.367s-10.031-22.363-22.363-22.363zm0 29.73c-4.0625 0-7.3633-3.3047-7.3633-7.3672 0-4.0586 3.3008-7.3633 7.3633-7.3633 4.0586 0 7.3633 3.3047 7.3633 7.3633 0 4.0625-3.3047 7.3672-7.3633 7.3672z"/>
 <path d="m174.33 311.99c12.332 0 22.363-10.031 22.363-22.363 0-12.332-10.035-22.367-22.363-22.367-12.332 0-22.367 10.035-22.367 22.367 0 12.332 10.035 22.363 22.367 22.363zm0-29.73c4.0586 0 7.3633 3.3047 7.3633 7.3672 0 4.0586-3.3047 7.3633-7.3633 7.3633-4.0625 0-7.3672-3.3047-7.3672-7.3633 0-4.0625 3.3047-7.3672 7.3672-7.3672z"/>
 <path d="m140.5 151.22c2.1055 0 4.2266-0.30078 6.3047-0.91016 11.836-3.4609 18.652-15.902 15.191-27.742-1.6758-5.7305-5.4844-10.473-10.723-13.34-5.2422-2.8711-11.285-3.5273-17.02-1.8516-11.836 3.4609-18.652 15.902-15.191 27.738 1.6758 5.7344 5.4844 10.477 10.723 13.344 3.3398 1.8281 7.0078 2.7617 10.715 2.7617zm-2.0352-29.445c0.68359-0.19922 1.3828-0.30078 2.0742-0.30078 1.2227 0 2.4297 0.30859 3.5273 0.91016 1.7266 0.94531 2.9805 2.5039 3.5312 4.3945 1.1406 3.8984-1.1055 7.9961-5 9.1328-1.8906 0.55078-3.8789 0.33594-5.6055-0.60937-1.7227-0.94531-2.9766-2.5039-3.5312-4.3945-1.1406-3.8945 1.1055-7.9922 5.0039-9.1328z"/>
 <path d="m116.68 300.59c0-12.332-10.035-22.363-22.367-22.363s-22.363 10.031-22.363 22.363 10.031 22.367 22.363 22.367c12.332-0.003907 22.367-10.035 22.367-22.367zm-22.367 7.3633c-4.0586 0-7.3633-3.3047-7.3633-7.3633 0-4.0625 3.3047-7.3672 7.3633-7.3672 4.0625 0 7.3672 3.3047 7.3672 7.3672 0 4.0586-3.3047 7.3633-7.3672 7.3633z"/>
 <path d="m303.67 437.36c12.332 0 22.363-10.031 22.363-22.363 0-12.332-10.031-22.363-22.363-22.363s-22.363 10.031-22.363 22.363c0 12.332 10.031 22.363 22.363 22.363zm0-29.727c4.0625 0 7.3633 3.3047 7.3633 7.3633 0 4.0625-3.3008 7.3633-7.3633 7.3633-4.0586 0-7.3633-3.3008-7.3633-7.3633 0-4.0586 3.3047-7.3633 7.3633-7.3633z"/>
 <path d="m255.53 352.69c12.332 0 22.367-10.031 22.367-22.363s-10.035-22.363-22.367-22.363c-12.332 0-22.363 10.031-22.363 22.363s10.031 22.363 22.363 22.363zm0-29.73c4.0625 0 7.3672 3.3047 7.3672 7.3672 0 4.0586-3.3047 7.3633-7.3672 7.3633-4.0586 0-7.3633-3.3047-7.3633-7.3633 0-4.0625 3.3047-7.3672 7.3633-7.3672z"/>
 <path d="m398.13 164.62c-20.527 0-37.227 16.703-37.227 37.23 0 20.527 16.699 37.23 37.227 37.23s37.23-16.703 37.23-37.23c0-20.527-16.703-37.23-37.23-37.23zm0 59.461c-12.258 0-22.227-9.9727-22.227-22.23 0-12.258 9.9688-22.23 22.227-22.23 12.258 0 22.23 9.9727 22.23 22.23 0 12.258-9.9727 22.23-22.23 22.23z"/>
 <path d="m511.02 239.64c-5.0508-79.984-47.402-152.57-113.58-196.73-4.9688-3.3125-11.129-4.4844-16.984-3.2578-1.8516-5.6797-5.9258-10.441-11.27-13.09-35.504-17.625-73.742-26.559-113.65-26.559-39.906 0-78.145 8.9336-113.65 26.559-5.3398 2.6523-9.4141 7.4102-11.266 13.09-5.8555-1.2266-12.02-0.054688-16.988 3.2578-66.117 44.117-108.52 116.68-113.58 196.73-0.375 5.9727 1.6992 11.902 5.6914 16.363-3.9961 4.4609-6.0664 10.391-5.6914 16.363 5.0508 79.984 47.402 152.57 113.58 196.73 4.7891 3.1953 10.891 4.5352 16.984 3.2578 1.8516 5.6797 5.9258 10.441 11.27 13.094 35.504 17.621 73.742 26.555 113.65 26.555 39.91 0 78.148-8.9336 113.65-26.559 11.574-5.7422 15.84-20.16 9.3789-31.352l-110.04-190.59h80.508v42.562c0 13.801 10.879 26.031 26.508 26.031 14.719 0 26.695-11.934 26.695-26.602v-6.8789c0-2.4258 1.9727-4.3984 4.3984-4.3984 2.4258 0 4.3984 1.9727 4.3984 4.3984v53.457c0 12.172 9.9023 22.07 22.074 22.07 12.168 0 22.07-9.8984 22.07-22.07v-88.57h33.375c12.961 0 23.281-10.953 22.469-23.863zm-386.48 172.48c-8.3594-7.0234-14.004-18.105-22.062-27.699-8.0469-9.5781-17.977-17.031-23.465-26.516-5.4297-9.3789-6.9648-21.715-11.273-33.555-4.25-11.672-11.023-22.043-12.93-32.945-1.4805-8.4414 0.003906-17.852 0.66016-27.902h187.07l-93.555 162.04c-9-4.4375-17.809-7.8438-24.445-13.418zm-69.73-191.52c1.9062-10.902 8.6797-21.273 12.93-32.945 4.3125-11.852 5.8438-24.172 11.273-33.555 5.4844-9.4844 15.422-16.941 23.465-26.516 8.0664-9.6094 13.699-20.672 22.062-27.699 6.6367-5.5742 15.449-8.9844 24.449-13.422l39.465 68.359c2.0703 3.5859 6.6602 4.8164 10.246 2.7461 3.5859-2.0703 4.8164-6.6602 2.7461-10.246l-39.477-68.375c8.2891-5.5703 15.613-11.5 23.844-14.496 10.129-3.6875 22.539-3.0508 35.004-5.2305 12.188-2.1367 23.562-7.0039 34.711-7.0039 11.152 0 22.527 4.8672 34.715 7.0039 12.465 2.1797 24.879 1.543 35.004 5.2305 8.2266 2.9961 15.547 8.9219 23.844 14.496l-93.562 162.05-36.582-63.367c-2.0742-3.5859-6.6602-4.8164-10.246-2.7461-3.5859 2.0742-4.8164 6.6602-2.7461 10.246l36.586 63.367h-187.07c-0.66016-10.051-2.1445-19.461-0.66406-27.902zm93.738-180.61c33.414-16.582 69.41-24.992 106.98-24.992 37.574 0 73.57 8.4102 106.98 24.992 3.8125 1.8906 5.2148 6.6797 3.0547 10.418l-8.957 15.512c-8.2578-5.6211-16.266-11.938-26.234-15.566-12.492-4.5469-25.766-3.8477-37.547-5.9141-11.422-1.9961-23.645-7.2266-37.301-7.2266-13.652 0-25.879 5.2305-37.297 7.2266-11.777 2.0664-25.055 1.3633-37.551 5.9141-9.9648 3.6289-17.953 9.9297-26.23 15.566-0.066407-0.11328-8.9531-15.504-8.9531-15.504-0.003906-0.003907-0.003906-0.007813-0.003906-0.007813-2.1562-3.7344-0.76172-8.5234 3.0547-10.418zm-133.53 200.59c4.6953-74.422 44.672-143.65 106.93-185.2 3.543-2.3633 8.4023-1.1992 10.566 2.5508l8.9531 15.508c-9.0156 4.3789-18.508 8.1797-26.578 14.957-10.285 8.6406-16.305 20.496-23.902 29.539-7.5742 9.0156-18.215 16.988-24.961 28.648-6.6875 11.559-8.3125 24.746-12.383 35.934-3.9961 10.977-11.27 22.109-13.613 35.492-1.8008 10.285-0.31641 20.43 0.40234 30.488h-17.926c-4.3281 0-7.7656-3.6328-7.4922-7.9219zm106.93 216.04c-62.262-41.539-102.24-110.77-106.93-185.2-0.27344-4.2852 3.1641-7.918 7.4961-7.918h17.922c-0.71875 10.074-2.2031 20.203-0.40234 30.488 2.3438 13.383 9.6172 24.52 13.613 35.492 4.0703 11.184 5.6992 24.375 12.383 35.934 6.7461 11.656 17.391 19.633 24.965 28.652 7.5977 9.043 13.617 20.898 23.902 29.535 8.0625 6.7773 17.551 10.574 26.574 14.957l-8.9531 15.504c-2.1523 3.7344-7.0039 4.9297-10.566 2.5508zm240.56 15.395c-33.414 16.582-69.41 24.992-106.98 24.992-37.574 0-73.566-8.4102-106.98-24.992-3.8125-1.8945-5.2148-6.6797-3.0547-10.418l8.957-15.512c8.2617 5.625 16.266 11.938 26.23 15.566 3.8867 1.418 8.1953-0.58594 9.6133-4.4844 1.418-3.8906-0.58984-8.1953-4.4805-9.6094-8.2266-2.9961-15.551-8.9219-23.844-14.5l93.559-162.05 93.562 162.05c-8.2969 5.5781-15.617 11.504-23.844 14.5-10.129 3.6875-22.539 3.0469-35.004 5.2305-12.188 2.1328-23.562 7.0039-34.715 7.0039-11.891 0-23.566-5.4336-37.551-7.457-4.1016-0.58984-7.9023 2.2539-8.4961 6.3516-0.58984 4.1016 2.2539 7.9062 6.3516 8.4961 12.926 1.8672 25.25 7.6094 39.695 7.6094 13.656 0 25.875-5.2266 37.301-7.2266 11.773-2.0625 25.051-1.3633 37.551-5.9141 9.9609-3.625 17.957-9.9297 26.23-15.566l8.957 15.512c2.1562 3.7344 0.76172 8.5234-3.0547 10.418zm85.16-223.51c-4.1406 0-7.5 3.3594-7.5 7.5v96.07c0 3.8984-3.1719 7.0703-7.0703 7.0703-3.8984 0-7.0703-3.1719-7.0703-7.0703v-53.457c0-10.699-8.7031-19.398-19.402-19.398-10.695 0-19.398 8.6992-19.398 19.398v6.8789c0 5.9805-4.6641 11.602-12.172 11.602-6.0977 0-11.031-4.9336-11.031-11.031l0.003906-42.562h56.715c4.1406 0 7.5-3.3594 7.5-7.5s-3.3594-7.5-7.5-7.5h-152.23l93.551-162.04c8.9883 4.4297 17.809 7.8398 24.449 13.418 8.3633 7.0234 14 18.102 22.062 27.699 8.0469 9.5781 17.977 17.027 23.465 26.516 5.4297 9.3789 6.9609 21.715 11.273 33.555 4.25 11.672 11.02 22.043 12.93 32.945 1.4805 8.4414-0.003906 17.852-0.66406 27.902zm40.875 0h-17.922c0.71875-10.074 2.2031-20.203 0.40234-30.488-2.3438-13.383-9.6172-24.52-13.613-35.492-4.0664-11.18-5.6992-24.379-12.383-35.934-6.7461-11.66-17.395-19.641-24.965-28.652-7.5898-9.0391-13.617-20.898-23.898-29.535-8.0664-6.7734-17.547-10.57-26.578-14.957l8.9531-15.508c2.1641-3.75 7.0273-4.9141 10.566-2.5508 62.262 41.543 102.24 110.77 106.93 185.2 0.27344 4.2969-3.1719 7.9219-7.4961 7.9219z"/>
</svg>
